Coordinates
version=1
nRows=29
nColumns=24
inDegrees=yes

Units are S.I. units (second, meters, Newtons, ...)
Angles are in degrees.

endheader
time	pelvis_tilt	pelvis_list	pelvis_rotation	pelvis_tx	pelvis_ty	pelvis_tz	hip_flexion_r	hip_adduction_r	hip_rotation_r	knee_angle_r	ankle_angle_r	subtalar_angle_r	mtp_angle_r	hip_flexion_l	hip_adduction_l	hip_rotation_l	knee_angle_l	ankle_angle_l	subtalar_angle_l	mtp_angle_l	lumbar_extension	lumbar_bending	lumbar_rotation
      0.52900000	     -6.57350500	      4.99516725	      3.91090288	     -0.83961597	      0.97411480	      0.32006782	     32.26594631	     -3.88068738	     -5.47185270	     -3.98504753	      5.15296916	     -7.28298608	      0.15837566	     -9.20804699	      8.74312680	      6.02386742	     -7.87633483	      8.78119599	     -4.99300823	      0.48353953	      2.87441874	     -3.51344430	      0.11216413
      0.53316667	     -6.62930221	      5.02210723	      3.89561757	     -0.83356357	      0.97371738	      0.32039609	     32.32101588	     -3.82868510	     -5.44079875	     -4.25824545	      5.08022630	     -7.28641204	      0.24134539	     -9.28261576	      8.73506234	      5.95370501	     -8.29638529	      8.58117683	     -4.83523878	      0.60019529	      2.99161446	     -3.54422357	      0.06929630
      0.53733333	     -6.68662494	      5.02774316	      3.88765260	     -0.82747682	      0.97335784	      0.32075761	     32.34952637	     -3.75439779	     -5.35515709	     -4.53442635	      4.96812791	     -7.41103284	      0.43867113	     -9.30509289	      8.70020583	      5.79633995	     -8.81412433	      8.45324749	     -4.62467111	      0.89125570	      3.12739024	     -3.56839606	      0.02117441
      0.54150000	     -6.69918832	      5.02219223	      3.84631005	     -0.82129986	      0.97309225	      0.32113066	     32.33236337	     -3.65573300	     -5.23839514	     -4.86178468	      4.74822985	     -7.66007595	      2.79741456	     -9.41744978	      8.65765344	      5.71404101	     -9.23657393	      8.11512410	     -4.61767974	      4.33837438	      3.20311300	     -3.54947999	      0.01761076
      0.54566667	     -6.72585406	      5.02085143	      3.80406301	     -0.81509444	      0.97284034	      0.32150390	     32.33548563	     -3.56409775	     -5.12613912	     -5.24827373	      4.54351632	     -7.73611735	      2.82028352	     -9.48369803	      8.62332434	      5.59883411	     -9.72403813	      7.83843355	     -4.50030266	      4.35714259	      3.31135102	     -3.54011677	     -0.01339049
      0.54983333	     -6.79417823	      5.00168437	      3.77122056	     -0.80885349	      0.97257102	      0.32191115	     32.35361250	     -3.45225051	     -4.93091542	     -5.61843613	      4.28040287	     -8.00591903	      2.88628880	     -9.45940598	      8.56682302	      5.41155192	    -10.30270889	      7.59986906	     -4.31355091	      4.44620865	      3.47499511	     -3.52620152	     -0.03899898
      0.55400000	     -6.82085865	      4.95868205	      3.71298977	     -0.80254080	      0.97240112	      0.32235374	     32.31391030	     -3.30075404	     -4.68409484	     -6.00179931	      3.99105519	     -8.45181756	      3.06345168	     -9.48491489	      8.48230101	      5.20738363	    -10.85685900	      7.27175879	     -4.10751840	      4.72348794	      3.59527531	     -3.46682442	     -0.04124532
      0.55816667	     -6.88020221	      4.93016134	      3.65687438	     -0.79621649	      0.97220940	      0.32277857	     32.31393152	     -3.17236230	     -4.46531023	     -6.41158567	      3.59486234	     -8.66988232	      3.17136518	     -9.44800428	      8.42099160	      5.01972845	    -11.46690371	      6.92643374	     -3.99211036	      4.91853039	      3.75884677	     -3.43326912	     -0.04865517
      0.56233333	     -6.91748675	      4.87225699	      3.57709160	     -0.78982878	      0.97207921	      0.32325731	     32.28179092	     -2.99686206	     -4.19143979	     -6.83717962	      3.20118269	     -9.17182154	      3.37132477	     -9.42135696	      8.32206828	      4.76045573	    -12.09251262	      6.56474729	     -3.75906996	      5.30712703	      3.90424350	     -3.34787902	     -0.04358066
      0.56650000	     -6.94557732	      4.81659704	      3.50540698	     -0.78339493	      0.97201867	      0.32371178	     32.22169797	     -2.83467458	     -3.94629751	     -7.24504848	      2.76304483	     -9.55353500	      5.34460448	     -9.39377888	      8.22455966	      4.53087433	    -12.71774616	      5.98596146	     -3.72016774	      9.33564781	      4.04408878	     -3.27347806	     -0.04203096
      0.57066667	     -6.99982990	      4.75340247	      3.44009687	     -0.77695509	      0.97195325	      0.32417973	     32.18999647	     -2.67044495	     -3.72204702	     -7.67031100	      2.29167910	     -9.81314084	      5.37365983	     -9.28359584	      8.11320580	      4.23473251	    -13.45400892	      5.54058101	     -3.46374853	      9.39451593	      4.21575820	     -3.19727429	     -0.03463627
      0.57483333	     -7.04898218	      4.67154650	      3.35874485	     -0.77048676	      0.97192596	      0.32468498	     32.13996474	     -2.47561833	     -3.44434058	     -8.08577000	      1.80927068	    -10.28328319	      5.42716223	     -9.16267392	      7.97817105	      3.91352887	    -14.21211988	      5.04238790	     -3.19902545	      9.55213719	      4.38525809	     -3.09185325	     -0.01551769
      0.57900000	     -7.10444795	      4.59195804	      3.28345173	     -0.76400331	      0.97194840	      0.32517238	     32.08901990	     -2.29282489	     -3.19293398	     -8.49827316	      1.32065577	    -10.65058381	      5.48252744	     -9.00880546	      7.84303183	      3.60583304	    -15.00434955	      4.45502808	     -2.96812728	      9.74849627	      4.56949140	     -2.98941873	     -0.00125117
      0.58316667	     -7.13222096	      4.47788712	      3.20475337	     -0.75749493	      0.97204893	      0.32570382	     31.99750538	     -2.06879818	     -2.92003145	     -8.91210966	      0.89886652	    -11.31384357	      5.62510342	     -8.84770692	      7.65468926	      3.24429525	    -15.84960946	      3.85494969	     -2.61276584	     10.30786227	      4.71670990	     -2.83711060	      0.03241989
      0.58733333	     -7.19854491	      4.39608963	      3.12178017	     -0.75101053	      0.97212946	      0.32619602	     31.96564749	     -1.89139197	     -2.71030206	     -9.35315191	      0.37423830	    -11.68039778	      6.65699517	     -8.61896408	      7.50882442	      2.92032114	    -16.72322809	      3.09335364	     -2.50511269	     14.72169820	      4.91028521	     -2.72572117	      0.04653950
      0.59150000	     -7.24044477	      4.29188462	      3.05102432	     -0.74452709	      0.97227402	      0.32668920	     31.90831321	     -1.70508557	     -2.57120381	     -9.80911928	     -0.08549653	    -11.94163847	      6.67002605	     -8.36388645	      7.31961163	      2.54510711	    -17.69759944	      2.44510410	     -2.12050289	     14.81460164	      5.07110124	     -2.58929304	      0.06913495
      0.59566667	     -7.30950736	      4.19442807	      2.99377690	     -0.73806192	      0.97244934	      0.32717735	     31.85735986	     -1.53264738	     -2.39992565	    -10.22682555	     -0.53122735	    -12.22887221	      6.68010320	     -8.03951656	      7.13344205	      2.20934052	    -18.72555762	      1.67464580	     -1.81742052	     14.95500639	      5.27290886	     -2.47551329	      0.08551066
      0.59983333	     -7.35782494	      4.05946152	      2.94542727	     -0.73161777	      0.97269375	      0.32768999	     31.78073368	     -1.32453946	     -2.24040637	    -10.65516999	     -0.88655296	    -12.77479215	      6.70410574	     -7.68893367	      6.88767980	      1.85042508	    -19.82406764	      0.89478525	     -1.39922683	     15.38930375	      5.43158432	     -2.30510321	      0.10933394
      0.60400000	     -7.41580213	      3.94711239	      2.88346058	     -0.72521559	      0.97293904	      0.32818146	     31.73182303	     -1.14753201	     -2.12812629	    -11.10707588	     -1.28572444	    -13.05416638	      6.86587998	     -7.29915249	      6.66814381	      1.51362559	    -20.95440785	     -0.01725594	     -1.18442481	     19.17919085	      5.60430572	     -2.15939408	      0.13642299
      0.60816667	     -7.47068551	      3.83458283	      2.84401851	     -0.71884228	      0.97324130	      0.32864264	     31.67806556	     -0.99252023	     -2.09380224	    -11.56408797	     -1.61335717	    -13.14761491	      6.86055279	     -6.85948211	      6.43492484	      1.19062039	    -22.16474980	     -0.89862225	     -0.79374203	     19.22977456	      5.76906218	     -2.02311073	      0.13807558
      0.61233333	     -7.53303811	      3.70534901	      2.80929316	     -0.71254150	      0.97354157	      0.32912121	     31.64627108	     -0.82449877	     -2.07149229	    -12.05559246	     -1.88183276	    -13.41123134	      6.84539175	     -6.35387078	      6.16934657	      0.85643310	    -23.46341472	     -1.78433201	     -0.37898572	     19.37399614	      5.92857046	     -1.86532436	      0.14542947
      0.61650000	     -7.57712284	      3.57369709	      2.78699133	     -0.70626839	      0.97391679	      0.32958834	     31.56607261	     -0.66318181	     -2.05782990	    -12.48874671	     -2.11200754	    -13.53963030	      6.82896192	     -5.83589357	      5.89358039	      0.56899746	    -24.79465619	     -2.76335250	     -0.01490791	     19.51658327	      6.07278410	     -1.71242647	      0.15633538
      0.62066667	     -7.63518930	      3.43484901	      2.76795087	     -0.70007629	      0.97427925	      0.33005832	     31.52092211	     -0.50227784	     -2.08657763	    -12.96349834	     -2.29542659	    -13.70171552	      6.80193976	     -5.24500608	      5.60088892	      0.28667972	    -26.20684205	     -3.74598835	      0.37423106	     19.72409871	      6.21699744	     -1.55082588	      0.16066922
      0.62483333	     -7.67422575	      3.28855773	      2.75845156	     -0.69394424	      0.97469098	      0.33051074	     31.44508085	     -0.34273808	     -2.13691745	    -13.41660504	     -2.43251720	    -13.79531307	      6.77061320	     -4.63763448	      5.29393376	      0.04271564	    -27.65898697	     -4.78569455	      0.72456536	     19.93716896	      6.33169543	     -1.38151798	      0.16496832
      0.62900000	     -7.71040116	      3.13611044	      2.75386798	     -0.68787672	      0.97512872	      0.33096148	     31.36323283	     -0.18370246	     -2.21553485	    -13.86289598	     -2.52488217	    -13.83850245	      6.73935976	     -3.99176585	      4.97429351	     -0.17746033	    -29.15254237	     -5.86274264	      1.05624185	     20.12683641	      6.43305935	     -1.20631886	      0.17211963
      0.63316667	     -7.75404199	      2.97768200	      2.75499790	     -0.68189816	      0.97554993	      0.33141361	     31.29381856	     -0.02430225	     -2.32066944	    -14.31434740	     -2.58610455	    -13.87329609	      6.69721546	     -3.29429898	      4.64223787	     -0.37640059	    -30.70086047	     -6.92225593	      1.38044545	     20.34678585	      6.53430298	     -1.02966374	      0.17102567
      0.63733333	     -7.77746689	      2.81119330	      2.75584053	     -0.67598834	      0.97600446	      0.33187129	     31.19536177	      0.14192140	     -2.44293263	    -14.74732927	     -2.61106360	    -13.86637349	      6.64937713	     -2.58110240	      4.29613001	     -0.55774037	    -32.28057890	     -8.01687755	      1.67378829	     20.55939912	      6.60241170	     -0.84226343	      0.17457853
      0.64150000	     -7.82192023	      2.63816447	      2.76370922	     -0.67016629	      0.97642882	      0.33232754	     31.11585777	      0.31018192	     -2.57828622	    -15.16855466	     -2.60565322	    -13.82711948	      6.59744697	     -1.80855021	      3.94345644	     -0.70157165	    -33.89633463	     -9.12863399	      1.93332099	     20.75292203	      6.68755873	     -0.65008520	      0.17748098
      0.64566667	     -7.83633198	      2.45210038	      2.76989656	     -0.66440877	      0.97690772	      0.33277504	     30.98780673	      0.49185553	     -2.72431322	    -15.55239484	     -2.57407059	    -13.76369662	      6.54555937	     -1.04262220	      3.57694736	     -0.81756304	    -35.51893007	    -10.23438253	      2.14635771	     20.90741685	      6.72463224	     -0.44467710	      0.18768591
